<?xml version="1.0" encoding="UTF-8" standalone="no"?>
<!-- Created with Inkscape (http://www.inkscape.org/) -->

<svg
   xmlns:ns0="http://www.iki.fi/pav/software/textext/"
   xmlns:dc="http://purl.org/dc/elements/1.1/"
   xmlns:cc="http://creativecommons.org/ns#"
   xmlns:rdf="http://www.w3.org/1999/02/22-rdf-syntax-ns#"
   xmlns:svg="http://www.w3.org/2000/svg"
   xmlns="http://www.w3.org/2000/svg"
   xmlns:xlink="http://www.w3.org/1999/xlink"
   xmlns:sodipodi="http://sodipodi.sourceforge.net/DTD/sodipodi-0.dtd"
   xmlns:inkscape="http://www.inkscape.org/namespaces/inkscape"
   width="156.98309"
   height="74.222275"
   id="svg2"
   version="1.1"
   inkscape:version="0.48.4 r9939"
   sodipodi:docname="temporal_values.svg">
  <sodipodi:namedview
     id="base"
     pagecolor="#ffffff"
     bordercolor="#666666"
     borderopacity="1.0"
     inkscape:pageopacity="0.0"
     inkscape:pageshadow="2"
     inkscape:zoom="5.463936"
     inkscape:cx="85.065773"
     inkscape:cy="42.542277"
     inkscape:document-units="px"
     inkscape:current-layer="layer1"
     showgrid="true"
     showguides="false"
     inkscape:window-width="1920"
     inkscape:window-height="1011"
     inkscape:window-x="0"
     inkscape:window-y="24"
     inkscape:window-maximized="1"
     fit-margin-top="0"
     fit-margin-left="0"
     fit-margin-right="0"
     fit-margin-bottom="0">
    <inkscape:grid
       originy="-0.57968131px"
       originx="6.9830924px"
       type="xygrid"
       id="grid2985"
       empspacing="5"
       visible="true"
       enabled="true"
       snapvisiblegridlinesonly="true" />
  </sodipodi:namedview>
  <defs
     id="defs4">
    <marker
       style="overflow:visible;"
       id="Arrow2Lend"
       refX="0.0"
       refY="0.0"
       orient="auto"
       inkscape:stockid="Arrow2Lend">
      <path
         transform="scale(1.1) rotate(180) translate(1,0)"
         d="M 8.7185878,4.0337352 L -2.2072895,0.016013256 L 8.7185884,-4.0017078 C 6.9730900,-1.6296469 6.9831476,1.6157441 8.7185878,4.0337352 z "
         style="fill-rule:evenodd;stroke-width:0.62500000;stroke-linejoin:round;"
         id="path5949" />
    </marker>
    <marker
       style="overflow:visible;"
       id="Arrow1Lend"
       refX="0.0"
       refY="0.0"
       orient="auto"
       inkscape:stockid="Arrow1Lend">
      <path
         transform="scale(0.8) rotate(180) translate(12.5,0)"
         style="fill-rule:evenodd;stroke:#000000;stroke-width:1.0pt;"
         d="M 0.0,0.0 L 5.0,-5.0 L -12.5,0.0 L 5.0,5.0 L 0.0,0.0 z "
         id="path5931" />
    </marker>
    <marker
       style="overflow:visible;"
       id="Arrow1Send"
       refX="0.0"
       refY="0.0"
       orient="auto"
       inkscape:stockid="Arrow1Send">
      <path
         transform="scale(0.2) rotate(180) translate(6,0)"
         style="fill-rule:evenodd;stroke:#000000;stroke-width:1.0pt;"
         d="M 0.0,0.0 L 5.0,-5.0 L -12.5,0.0 L 5.0,5.0 L 0.0,0.0 z "
         id="path5943" />
    </marker>
    <marker
       style="overflow:visible"
       id="Arrow1Mstart"
       refX="0.0"
       refY="0.0"
       orient="auto"
       inkscape:stockid="Arrow1Mstart">
      <path
         transform="scale(0.4) translate(10,0)"
         style="fill-rule:evenodd;stroke:#000000;stroke-width:1.0pt"
         d="M 0.0,0.0 L 5.0,-5.0 L -12.5,0.0 L 5.0,5.0 L 0.0,0.0 z "
         id="path5934" />
    </marker>
  </defs>
  <metadata
     id="metadata7">
    <rdf:RDF>
      <cc:Work
         rdf:about="">
        <dc:format>image/svg+xml</dc:format>
        <dc:type
           rdf:resource="http://purl.org/dc/dcmitype/StillImage" />
        <dc:title />
      </cc:Work>
    </rdf:RDF>
  </metadata>
  <g
     inkscape:label="Calque 1"
     inkscape:groupmode="layer"
     id="layer1"
     transform="translate(-232.55633,-141.86087)">
    <path
       sodipodi:nodetypes="ccc"
       style="fill:none;stroke:#000000;stroke-width:0.92113239px;stroke-linecap:butt;stroke-linejoin:miter;stroke-opacity:1"
       d="m 389.53943,201.66282 -145,-1e-5 0,-50"
       id="path2987"
       inkscape:connector-curvature="0" />
    <path
       style="fill:none;stroke:#000000;stroke-width:0.60000002;stroke-linecap:butt;stroke-linejoin:miter;stroke-miterlimit:4;stroke-opacity:1;stroke-dasharray:0.6, 0.6;stroke-dashoffset:0"
       d="m 249.38824,191.71511 0,10"
       id="path2993"
       inkscape:connector-curvature="0"
       sodipodi:nodetypes="cc" />
    <path
       style="fill:none;stroke:#000000;stroke-width:0.60000002;stroke-linecap:butt;stroke-linejoin:miter;stroke-miterlimit:4;stroke-opacity:1;stroke-dasharray:0.6, 0.6;stroke-dashoffset:0"
       d="m 294.51765,192.23277 0,10"
       id="path2993-2-7-3"
       inkscape:connector-curvature="0"
       sodipodi:nodetypes="cc" />
    <path
       style="fill:none;stroke:#000000;stroke-width:0.60000002;stroke-linecap:butt;stroke-linejoin:miter;stroke-miterlimit:4;stroke-opacity:1;stroke-dasharray:0.6, 0.6;stroke-dashoffset:0"
       d="m 314.70544,191.71511 0,10"
       id="path2993-2-7-3-6-0"
       inkscape:connector-curvature="0"
       sodipodi:nodetypes="cc" />
    <path
       style="fill:none;stroke:#000000;stroke-width:0.60000002;stroke-linecap:butt;stroke-linejoin:miter;stroke-miterlimit:4;stroke-opacity:1;stroke-dasharray:0.6, 0.6;stroke-dashoffset:0"
       d="m 349.90518,192.62101 0,10"
       id="path2993-2-7-3-6-0-3-9"
       inkscape:connector-curvature="0"
       sodipodi:nodetypes="cc" />
    <g
       transform="translate(21.930208,78.286822)"
       ns0:text="$t_1$"
       ns0:preamble=""
       id="g11852">
      <defs
         id="defs11854">
        <g
           id="g11856">
          <symbol
             style="overflow:visible"
             overflow="visible"
             id="textext-ed69a28c-0">
            <path
               inkscape:connector-curvature="0"
               style="stroke:none"
               d="m 2.046875,-3.984375 0.9375,0 c 0.203125,0 0.3125,0 0.3125,-0.203125 0,-0.109375 -0.109375,-0.109375 -0.28125,-0.109375 l -0.875,0 C 2.5,-5.71875 2.546875,-5.90625 2.546875,-5.96875 c 0,-0.171875 -0.125,-0.265625 -0.296875,-0.265625 -0.03125,0 -0.3125,0 -0.390625,0.359375 l -0.390625,1.578125 -0.9375,0 c -0.203125,0 -0.296875,0 -0.296875,0.1875 0,0.125 0.078125,0.125 0.28125,0.125 l 0.875,0 C 0.671875,-1.15625 0.625,-0.984375 0.625,-0.8125 0.625,-0.265625 1,0.109375 1.546875,0.109375 2.5625,0.109375 3.125,-1.34375 3.125,-1.421875 3.125,-1.53125 3.046875,-1.53125 3.015625,-1.53125 2.921875,-1.53125 2.90625,-1.5 2.859375,-1.390625 2.4375,-0.34375 1.90625,-0.109375 1.5625,-0.109375 c -0.203125,0 -0.3125,-0.125 -0.3125,-0.453125 0,-0.25 0.03125,-0.3125 0.0625,-0.484375 z m 0,0"
               id="path11859" />
          </symbol>
          <symbol
             style="overflow:visible"
             overflow="visible"
             id="textext-ed69a28c-1">
            <path
               inkscape:connector-curvature="0"
               style="stroke:none"
               d="m 2.328125,-4.4375 c 0,-0.1875 0,-0.1875 -0.203125,-0.1875 -0.453125,0.4375 -1.078125,0.4375 -1.359375,0.4375 l 0,0.25 c 0.15625,0 0.625,0 1,-0.1875 l 0,3.546875 c 0,0.234375 0,0.328125 -0.6875,0.328125 l -0.265625,0 0,0.25 c 0.125,0 0.984375,-0.03125 1.234375,-0.03125 0.21875,0 1.09375,0.03125 1.25,0.03125 l 0,-0.25 -0.265625,0 c -0.703125,0 -0.703125,-0.09375 -0.703125,-0.328125 z m 0,0"
               id="path11862" />
          </symbol>
        </g>
      </defs>
      <g
         id="textext-ed69a28c-2">
        <g
           style="fill:#000000;fill-opacity:1"
           id="g11865">
          <use
             height="1052.3622"
             width="744.09448"
             xlink:href="#textext-ed69a28c-0"
             x="223.43201"
             y="134.765"
             id="use11867" />
        </g>
        <g
           style="fill:#000000;fill-opacity:1"
           id="g11869">
          <use
             height="1052.3622"
             width="744.09448"
             xlink:href="#textext-ed69a28c-1"
             x="227.03"
             y="136.259"
             id="use11871" />
        </g>
      </g>
    </g>
    <g
       id="g11935"
       ns0:preamble=""
       ns0:text="$t_2$"
       transform="translate(66.881996,79.80205)">
      <defs
         id="defs11937">
        <g
           id="g11939">
          <symbol
             id="textext-ab9755dd-0"
             overflow="visible"
             style="overflow:visible">
            <path
               id="path11942"
               d="m 2.046875,-3.984375 0.9375,0 c 0.203125,0 0.3125,0 0.3125,-0.203125 0,-0.109375 -0.109375,-0.109375 -0.28125,-0.109375 l -0.875,0 C 2.5,-5.71875 2.546875,-5.90625 2.546875,-5.96875 c 0,-0.171875 -0.125,-0.265625 -0.296875,-0.265625 -0.03125,0 -0.3125,0 -0.390625,0.359375 l -0.390625,1.578125 -0.9375,0 c -0.203125,0 -0.296875,0 -0.296875,0.1875 0,0.125 0.078125,0.125 0.28125,0.125 l 0.875,0 C 0.671875,-1.15625 0.625,-0.984375 0.625,-0.8125 0.625,-0.265625 1,0.109375 1.546875,0.109375 2.5625,0.109375 3.125,-1.34375 3.125,-1.421875 3.125,-1.53125 3.046875,-1.53125 3.015625,-1.53125 2.921875,-1.53125 2.90625,-1.5 2.859375,-1.390625 2.4375,-0.34375 1.90625,-0.109375 1.5625,-0.109375 c -0.203125,0 -0.3125,-0.125 -0.3125,-0.453125 0,-0.25 0.03125,-0.3125 0.0625,-0.484375 z m 0,0"
               style="stroke:none"
               inkscape:connector-curvature="0" />
          </symbol>
          <symbol
             id="textext-ab9755dd-1"
             overflow="visible"
             style="overflow:visible">
            <path
               id="path11945"
               d="m 3.515625,-1.265625 -0.234375,0 c -0.015625,0.15625 -0.09375,0.5625 -0.1875,0.625 -0.046875,0.046875 -0.578125,0.046875 -0.6875,0.046875 l -1.28125,0 c 0.734375,-0.640625 0.984375,-0.84375 1.390625,-1.171875 0.515625,-0.40625 1,-0.84375 1,-1.5 0,-0.84375 -0.734375,-1.359375 -1.625,-1.359375 -0.859375,0 -1.453125,0.609375 -1.453125,1.25 0,0.34375 0.296875,0.390625 0.375,0.390625 0.15625,0 0.359375,-0.125 0.359375,-0.375 0,-0.125 -0.046875,-0.375 -0.40625,-0.375 C 0.984375,-4.21875 1.453125,-4.375 1.78125,-4.375 c 0.703125,0 1.0625,0.546875 1.0625,1.109375 0,0.609375 -0.4375,1.078125 -0.65625,1.328125 L 0.515625,-0.265625 C 0.4375,-0.203125 0.4375,-0.1875 0.4375,0 l 2.875,0 z m 0,0"
               style="stroke:none"
               inkscape:connector-curvature="0" />
          </symbol>
        </g>
      </defs>
      <g
         id="textext-ab9755dd-2">
        <g
           id="g11948"
           style="fill:#000000;fill-opacity:1">
          <use
             id="use11950"
             y="134.765"
             x="223.43201"
             xlink:href="#textext-ab9755dd-0"
             width="744.09448"
             height="1052.3622" />
        </g>
        <g
           id="g11952"
           style="fill:#000000;fill-opacity:1">
          <use
             id="use11954"
             y="136.259"
             x="227.03"
             xlink:href="#textext-ab9755dd-1"
             width="744.09448"
             height="1052.3622" />
        </g>
      </g>
    </g>
    <g
       id="g14181"
       ns0:preamble=""
       ns0:text="$S$"
       transform="translate(23.549565,14.127116)">
      <defs
         id="defs14183">
        <g
           id="g14185">
          <symbol
             id="textext-de7bf021-0"
             overflow="visible"
             style="overflow:visible">
            <path
               id="path14188"
               d="m 6.4375,-6.921875 c 0,-0.03125 -0.03125,-0.109375 -0.125,-0.109375 -0.046875,0 -0.046875,0.015625 -0.171875,0.15625 L 5.65625,-6.3125 c -0.25,-0.46875 -0.765625,-0.71875 -1.421875,-0.71875 -1.265625,0 -2.453125,1.15625 -2.453125,2.359375 0,0.796875 0.515625,1.265625 1.03125,1.40625 l 1.0625,0.28125 c 0.375,0.09375 0.921875,0.25 0.921875,1.0625 0,0.890625 -0.8125,1.828125 -1.796875,1.828125 -0.640625,0 -1.75,-0.21875 -1.75,-1.453125 0,-0.234375 0.0625,-0.484375 0.0625,-0.53125 0.015625,-0.046875 0.015625,-0.0625 0.015625,-0.078125 0,-0.09375 -0.0625,-0.109375 -0.109375,-0.109375 -0.046875,0 -0.078125,0.015625 -0.109375,0.046875 -0.03125,0.03125 -0.59375,2.3125 -0.59375,2.34375 0,0.046875 0.046875,0.09375 0.109375,0.09375 0.046875,0 0.0625,-0.015625 0.1875,-0.15625 L 1.296875,-0.5 c 0.421875,0.578125 1.109375,0.71875 1.6875,0.71875 1.359375,0 2.53125,-1.328125 2.53125,-2.5625 0,-0.6875 -0.34375,-1.03125 -0.484375,-1.171875 C 4.796875,-3.734375 4.640625,-3.78125 3.765625,-4 3.53125,-4.0625 3.1875,-4.171875 3.09375,-4.1875 2.828125,-4.28125 2.484375,-4.5625 2.484375,-5.09375 c 0,-0.8125 0.796875,-1.65625 1.75,-1.65625 0.8125,0 1.421875,0.4375 1.421875,1.546875 0,0.3125 -0.03125,0.5 -0.03125,0.5625 0,0 0,0.09375 0.109375,0.09375 0.109375,0 0.125,-0.03125 0.15625,-0.203125 z m 0,0"
               style="stroke:none"
               inkscape:connector-curvature="0" />
          </symbol>
        </g>
      </defs>
      <g
         id="textext-de7bf021-1">
        <g
           id="g14191"
           style="fill:#000000;fill-opacity:1">
          <use
             id="use14193"
             y="134.765"
             x="223.43201"
             xlink:href="#textext-de7bf021-0"
             width="744.09448"
             height="1052.3622" />
        </g>
      </g>
    </g>
    <g
       ns0:text="$t_4$"
       ns0:preamble="/home/rtrepos/writings/works/2012_10_24_EC_ConceptionIdetotypes/figures/preamble.tex"
       transform="translate(122.07132,77.494693)"
       id="g3185">
      <defs
         id="defs3187">
        <g
           id="g3189">
          <symbol
             style="overflow:visible"
             overflow="visible"
             id="textext-04afe545-0">
            <path
               inkscape:connector-curvature="0"
               style="stroke:none"
               d=""
               id="path3192" />
          </symbol>
          <symbol
             style="overflow:visible"
             overflow="visible"
             id="textext-04afe545-1">
            <path
               inkscape:connector-curvature="0"
               style="stroke:none"
               d="m 3.125,-1.421875 c 0,-0.109375 -0.078125,-0.109375 -0.109375,-0.109375 -0.09375,0 -0.109375,0.03125 -0.15625,0.140625 -0.421875,1.046875 -0.953125,1.28125 -1.296875,1.28125 -0.203125,0 -0.3125,-0.125 -0.3125,-0.453125 0,-0.25 0.03125,-0.3125 0.0625,-0.484375 l 0.734375,-2.9375 0.9375,0 c 0.203125,0 0.3125,0 0.3125,-0.203125 0,-0.109375 -0.109375,-0.109375 -0.28125,-0.109375 l -0.875,0 C 2.5,-5.71875 2.546875,-5.90625 2.546875,-5.96875 c 0,-0.171875 -0.125,-0.265625 -0.296875,-0.265625 -0.03125,0 -0.3125,0 -0.390625,0.359375 l -0.390625,1.578125 -0.9375,0 c -0.203125,0 -0.296875,0 -0.296875,0.1875 0,0.125 0.078125,0.125 0.28125,0.125 l 0.875,0 C 0.671875,-1.15625 0.625,-0.984375 0.625,-0.8125 0.625,-0.265625 1,0.109375 1.546875,0.109375 2.5625,0.109375 3.125,-1.34375 3.125,-1.421875 z m 0,0"
               id="path3195" />
          </symbol>
          <symbol
             style="overflow:visible"
             overflow="visible"
             id="textext-04afe545-2">
            <path
               inkscape:connector-curvature="0"
               style="stroke:none"
               d=""
               id="path3198" />
          </symbol>
          <symbol
             style="overflow:visible"
             overflow="visible"
             id="textext-04afe545-3">
            <path
               inkscape:connector-curvature="0"
               style="stroke:none"
               d="m 3.6875,-1.140625 0,-0.25 -0.78125,0 0,-3.109375 c 0,-0.140625 0,-0.203125 -0.140625,-0.203125 -0.09375,0 -0.125,0 -0.1875,0.109375 l -2.3125,3.203125 0,0.25 2.0625,0 0,0.5625 c 0,0.25 0,0.328125 -0.578125,0.328125 l -0.1875,0 0,0.25 1.046875,-0.03125 1.0625,0.03125 0,-0.25 -0.1875,0 C 2.90625,-0.25 2.90625,-0.328125 2.90625,-0.578125 l 0,-0.5625 z m -1.3125,-0.25 -1.84375,0 L 2.375,-3.9375 z m 0,0"
               id="path3201" />
          </symbol>
        </g>
      </defs>
      <g
         id="textext-04afe545-4">
        <g
           style="fill:#000000;fill-opacity:1"
           id="g3204">
          <use
             height="97.760002"
             width="180.92"
             xlink:href="#textext-04afe545-1"
             x="223.43201"
             y="134.765"
             id="use3206" />
        </g>
        <g
           style="fill:#000000;fill-opacity:1"
           id="g3208">
          <use
             height="97.760002"
             width="180.92"
             xlink:href="#textext-04afe545-3"
             x="227.03"
             y="136.259"
             id="use3210" />
        </g>
      </g>
    </g>
    <g
       id="g3340"
       transform="translate(89.329399,79.278108)"
       ns0:preamble="/home/rtrepos/writings/works/2012_10_24_EC_ConceptionIdetotypes/figures/preamble.tex"
       ns0:text="$t_3$">
      <defs
         id="defs3342">
        <g
           id="g3344">
          <symbol
             id="textext-40171f2c-0"
             overflow="visible"
             style="overflow:visible">
            <path
               id="path3347"
               d=""
               style="stroke:none"
               inkscape:connector-curvature="0" />
          </symbol>
          <symbol
             id="textext-40171f2c-1"
             overflow="visible"
             style="overflow:visible">
            <path
               id="path3350"
               d="m 3.125,-1.421875 c 0,-0.109375 -0.078125,-0.109375 -0.109375,-0.109375 -0.09375,0 -0.109375,0.03125 -0.15625,0.140625 -0.421875,1.046875 -0.953125,1.28125 -1.296875,1.28125 -0.203125,0 -0.3125,-0.125 -0.3125,-0.453125 0,-0.25 0.03125,-0.3125 0.0625,-0.484375 l 0.734375,-2.9375 0.9375,0 c 0.203125,0 0.3125,0 0.3125,-0.203125 0,-0.109375 -0.109375,-0.109375 -0.28125,-0.109375 l -0.875,0 C 2.5,-5.71875 2.546875,-5.90625 2.546875,-5.96875 c 0,-0.171875 -0.125,-0.265625 -0.296875,-0.265625 -0.03125,0 -0.3125,0 -0.390625,0.359375 l -0.390625,1.578125 -0.9375,0 c -0.203125,0 -0.296875,0 -0.296875,0.1875 0,0.125 0.078125,0.125 0.28125,0.125 l 0.875,0 C 0.671875,-1.15625 0.625,-0.984375 0.625,-0.8125 0.625,-0.265625 1,0.109375 1.546875,0.109375 2.5625,0.109375 3.125,-1.34375 3.125,-1.421875 z m 0,0"
               style="stroke:none"
               inkscape:connector-curvature="0" />
          </symbol>
          <symbol
             id="textext-40171f2c-2"
             overflow="visible"
             style="overflow:visible">
            <path
               id="path3353"
               d=""
               style="stroke:none"
               inkscape:connector-curvature="0" />
          </symbol>
          <symbol
             id="textext-40171f2c-3"
             overflow="visible"
             style="overflow:visible">
            <path
               id="path3356"
               d="m 3.578125,-1.203125 c 0,-0.546875 -0.4375,-1.09375 -1.203125,-1.25 0.71875,-0.265625 0.984375,-0.78125 0.984375,-1.21875 0,-0.546875 -0.625,-0.953125 -1.40625,-0.953125 -0.765625,0 -1.359375,0.375 -1.359375,0.9375 0,0.234375 0.15625,0.359375 0.359375,0.359375 0.21875,0 0.359375,-0.15625 0.359375,-0.34375 0,-0.203125 -0.140625,-0.359375 -0.359375,-0.375 0.25,-0.296875 0.71875,-0.375 0.984375,-0.375 0.3125,0 0.75,0.15625 0.75,0.75 0,0.296875 -0.09375,0.625 -0.28125,0.828125 -0.21875,0.265625 -0.421875,0.28125 -0.765625,0.3125 -0.171875,0.015625 -0.1875,0.015625 -0.21875,0.015625 0,0 -0.078125,0.015625 -0.078125,0.09375 0,0.09375 0.0625,0.09375 0.1875,0.09375 l 0.375,0 c 0.546875,0 0.9375,0.375 0.9375,1.125 0,0.859375 -0.515625,1.125 -0.90625,1.125 -0.28125,0 -0.90625,-0.078125 -1.1875,-0.5 0.328125,0 0.40625,-0.234375 0.40625,-0.390625 0,-0.21875 -0.171875,-0.375 -0.390625,-0.375 -0.1875,0 -0.390625,0.125 -0.390625,0.40625 0,0.65625 0.71875,1.078125 1.5625,1.078125 0.96875,0 1.640625,-0.65625 1.640625,-1.34375 z m 0,0"
               style="stroke:none"
               inkscape:connector-curvature="0" />
          </symbol>
        </g>
      </defs>
      <g
         id="textext-40171f2c-4">
        <g
           id="g3359"
           style="fill:#000000;fill-opacity:1">
          <use
             id="use3361"
             y="134.765"
             x="223.43201"
             xlink:href="#textext-40171f2c-1"
             width="180.92"
             height="97.760002" />
        </g>
        <g
           id="g3363"
           style="fill:#000000;fill-opacity:1">
          <use
             id="use3365"
             y="136.259"
             x="227.03"
             xlink:href="#textext-40171f2c-3"
             width="180.92"
             height="97.760002" />
        </g>
      </g>
    </g>
    <path
       style="fill:none;stroke:#000099;stroke-width:1px;stroke-linecap:butt;stroke-linejoin:miter;stroke-opacity:1"
       d="m 248.51008,186.66281 45,0"
       id="path3440"
       inkscape:connector-curvature="0" />
    <path
       style="fill:none;stroke:#000099;stroke-width:1px;stroke-linecap:butt;stroke-linejoin:miter;stroke-opacity:1"
       d="m 294.53943,161.66281 19.99999,2e-5"
       id="path3440-7"
       inkscape:connector-curvature="0"
       sodipodi:nodetypes="cc" />
    <path
       style="fill:none;stroke:#000099;stroke-width:1px;stroke-linecap:butt;stroke-linejoin:miter;stroke-opacity:1"
       d="m 314.53942,171.66283 35,0"
       id="path3440-7-7"
       inkscape:connector-curvature="0"
       sodipodi:nodetypes="cc" />
    <g
       ns0:text="$a_1$"
       ns0:preamble="/home/rtrepos/writings/works/2012_10_24_EC_ConceptionIdetotypes/figures/preamble.tex"
       transform="translate(8.718077,52.921787)"
       id="g4375">
      <defs
         id="defs4377">
        <g
           id="g4379">
          <symbol
             style="overflow:visible"
             overflow="visible"
             id="textext-aabd2511-0">
            <path
               inkscape:connector-curvature="0"
               style="stroke:none"
               d=""
               id="path4382" />
          </symbol>
          <symbol
             style="overflow:visible"
             overflow="visible"
             id="textext-aabd2511-1">
            <path
               inkscape:connector-curvature="0"
               style="stroke:none"
               d="m 4.96875,-1.421875 c 0,-0.109375 -0.09375,-0.109375 -0.125,-0.109375 -0.09375,0 -0.109375,0.046875 -0.140625,0.1875 -0.171875,0.640625 -0.34375,1.234375 -0.75,1.234375 -0.28125,0 -0.296875,-0.265625 -0.296875,-0.453125 0,-0.21875 0.015625,-0.3125 0.125,-0.75 L 4,-2.203125 4.359375,-3.59375 c 0.0625,-0.28125 0.0625,-0.296875 0.0625,-0.34375 0,-0.171875 -0.109375,-0.265625 -0.28125,-0.265625 -0.25,0 -0.390625,0.21875 -0.421875,0.4375 -0.1875,-0.375 -0.46875,-0.640625 -0.921875,-0.640625 -1.15625,0 -2.390625,1.46875 -2.390625,2.921875 0,0.9375 0.546875,1.59375 1.3125,1.59375 0.203125,0 0.703125,-0.046875 1.296875,-0.75 0.078125,0.421875 0.4375,0.75 0.90625,0.75 0.359375,0 0.578125,-0.234375 0.75,-0.546875 0.15625,-0.359375 0.296875,-0.984375 0.296875,-0.984375 z M 3.5625,-3.140625 3.078125,-1.1875 C 3.015625,-1 3.015625,-0.984375 2.875,-0.8125 2.4375,-0.265625 2.03125,-0.109375 1.75,-0.109375 c -0.5,0 -0.640625,-0.546875 -0.640625,-0.9375 0,-0.5 0.3125,-1.71875 0.546875,-2.1875 0.3125,-0.578125 0.75,-0.953125 1.15625,-0.953125 0.640625,0 0.78125,0.8125 0.78125,0.875 0,0.0625 -0.015625,0.125 -0.03125,0.171875 z m 0,0"
               id="path4385" />
          </symbol>
          <symbol
             style="overflow:visible"
             overflow="visible"
             id="textext-aabd2511-2">
            <path
               inkscape:connector-curvature="0"
               style="stroke:none"
               d=""
               id="path4388" />
          </symbol>
          <symbol
             style="overflow:visible"
             overflow="visible"
             id="textext-aabd2511-3">
            <path
               inkscape:connector-curvature="0"
               style="stroke:none"
               d="m 3.296875,0 0,-0.25 -0.265625,0 c -0.703125,0 -0.703125,-0.09375 -0.703125,-0.328125 l 0,-3.859375 c 0,-0.1875 0,-0.1875 -0.203125,-0.1875 -0.453125,0.4375 -1.078125,0.4375 -1.359375,0.4375 l 0,0.25 c 0.15625,0 0.625,0 1,-0.1875 l 0,3.546875 c 0,0.234375 0,0.328125 -0.6875,0.328125 l -0.265625,0 0,0.25 1.234375,-0.03125 z m 0,0"
               id="path4391" />
          </symbol>
        </g>
      </defs>
      <g
         id="textext-aabd2511-4">
        <g
           style="fill:#000000;fill-opacity:1"
           id="g4394">
          <use
             height="97.760002"
             width="180.92"
             xlink:href="#textext-aabd2511-1"
             x="223.43201"
             y="134.765"
             id="use4396" />
        </g>
        <g
           style="fill:#000000;fill-opacity:1"
           id="g4398">
          <use
             height="97.760002"
             width="180.92"
             xlink:href="#textext-aabd2511-3"
             x="228.698"
             y="136.259"
             id="use4400" />
        </g>
      </g>
    </g>
    <g
       id="g4651"
       transform="translate(8.7884065,38.698268)"
       ns0:preamble="/home/rtrepos/writings/works/2012_10_24_EC_ConceptionIdetotypes/figures/preamble.tex"
       ns0:text="$a_2$">
      <defs
         id="defs4653">
        <g
           id="g4655">
          <symbol
             style="overflow:visible"
             id="textext-ba5d5acb-0"
             overflow="visible">
            <path
               inkscape:connector-curvature="0"
               id="path4658"
               d=""
               style="stroke:none" />
          </symbol>
          <symbol
             style="overflow:visible"
             id="textext-ba5d5acb-1"
             overflow="visible">
            <path
               inkscape:connector-curvature="0"
               id="path4661"
               d="m 4.96875,-1.421875 c 0,-0.109375 -0.09375,-0.109375 -0.125,-0.109375 -0.09375,0 -0.109375,0.046875 -0.140625,0.1875 -0.171875,0.640625 -0.34375,1.234375 -0.75,1.234375 -0.28125,0 -0.296875,-0.265625 -0.296875,-0.453125 0,-0.21875 0.015625,-0.3125 0.125,-0.75 L 4,-2.203125 4.359375,-3.59375 c 0.0625,-0.28125 0.0625,-0.296875 0.0625,-0.34375 0,-0.171875 -0.109375,-0.265625 -0.28125,-0.265625 -0.25,0 -0.390625,0.21875 -0.421875,0.4375 -0.1875,-0.375 -0.46875,-0.640625 -0.921875,-0.640625 -1.15625,0 -2.390625,1.46875 -2.390625,2.921875 0,0.9375 0.546875,1.59375 1.3125,1.59375 0.203125,0 0.703125,-0.046875 1.296875,-0.75 0.078125,0.421875 0.4375,0.75 0.90625,0.75 0.359375,0 0.578125,-0.234375 0.75,-0.546875 0.15625,-0.359375 0.296875,-0.984375 0.296875,-0.984375 z M 3.5625,-3.140625 3.078125,-1.1875 C 3.015625,-1 3.015625,-0.984375 2.875,-0.8125 2.4375,-0.265625 2.03125,-0.109375 1.75,-0.109375 c -0.5,0 -0.640625,-0.546875 -0.640625,-0.9375 0,-0.5 0.3125,-1.71875 0.546875,-2.1875 0.3125,-0.578125 0.75,-0.953125 1.15625,-0.953125 0.640625,0 0.78125,0.8125 0.78125,0.875 0,0.0625 -0.015625,0.125 -0.03125,0.171875 z m 0,0"
               style="stroke:none" />
          </symbol>
          <symbol
             style="overflow:visible"
             id="textext-ba5d5acb-2"
             overflow="visible">
            <path
               inkscape:connector-curvature="0"
               id="path4664"
               d=""
               style="stroke:none" />
          </symbol>
          <symbol
             style="overflow:visible"
             id="textext-ba5d5acb-3"
             overflow="visible">
            <path
               inkscape:connector-curvature="0"
               id="path4667"
               d="m 3.515625,-1.265625 -0.234375,0 c -0.015625,0.15625 -0.09375,0.5625 -0.1875,0.625 -0.046875,0.046875 -0.578125,0.046875 -0.6875,0.046875 l -1.28125,0 c 0.734375,-0.640625 0.984375,-0.84375 1.390625,-1.171875 0.515625,-0.40625 1,-0.84375 1,-1.5 0,-0.84375 -0.734375,-1.359375 -1.625,-1.359375 -0.859375,0 -1.453125,0.609375 -1.453125,1.25 0,0.34375 0.296875,0.390625 0.375,0.390625 0.15625,0 0.359375,-0.125 0.359375,-0.375 0,-0.125 -0.046875,-0.375 -0.40625,-0.375 C 0.984375,-4.21875 1.453125,-4.375 1.78125,-4.375 c 0.703125,0 1.0625,0.546875 1.0625,1.109375 0,0.609375 -0.4375,1.078125 -0.65625,1.328125 L 0.515625,-0.265625 C 0.4375,-0.203125 0.4375,-0.1875 0.4375,0 l 2.875,0 z m 0,0"
               style="stroke:none" />
          </symbol>
        </g>
      </defs>
      <g
         id="textext-ba5d5acb-4">
        <g
           id="g4670"
           style="fill:#000000;fill-opacity:1">
          <use
             height="97.760002"
             width="180.92"
             id="use4672"
             y="134.765"
             x="223.43201"
             xlink:href="#textext-ba5d5acb-1" />
        </g>
        <g
           id="g4674"
           style="fill:#000000;fill-opacity:1">
          <use
             height="97.760002"
             width="180.92"
             id="use4676"
             y="136.259"
             x="228.698"
             xlink:href="#textext-ba5d5acb-3" />
        </g>
      </g>
    </g>
    <g
       ns0:text="$a_3$"
       ns0:preamble="/home/rtrepos/writings/works/2012_10_24_EC_ConceptionIdetotypes/figures/preamble.tex"
       transform="translate(9.0240282,27.921787)"
       id="g4933">
      <defs
         id="defs4935">
        <g
           id="g4937">
          <symbol
             style="overflow:visible"
             overflow="visible"
             id="textext-083378dc-0">
            <path
               inkscape:connector-curvature="0"
               style="stroke:none"
               d=""
               id="path4940" />
          </symbol>
          <symbol
             style="overflow:visible"
             overflow="visible"
             id="textext-083378dc-1">
            <path
               inkscape:connector-curvature="0"
               style="stroke:none"
               d="m 4.96875,-1.421875 c 0,-0.109375 -0.09375,-0.109375 -0.125,-0.109375 -0.09375,0 -0.109375,0.046875 -0.140625,0.1875 -0.171875,0.640625 -0.34375,1.234375 -0.75,1.234375 -0.28125,0 -0.296875,-0.265625 -0.296875,-0.453125 0,-0.21875 0.015625,-0.3125 0.125,-0.75 L 4,-2.203125 4.359375,-3.59375 c 0.0625,-0.28125 0.0625,-0.296875 0.0625,-0.34375 0,-0.171875 -0.109375,-0.265625 -0.28125,-0.265625 -0.25,0 -0.390625,0.21875 -0.421875,0.4375 -0.1875,-0.375 -0.46875,-0.640625 -0.921875,-0.640625 -1.15625,0 -2.390625,1.46875 -2.390625,2.921875 0,0.9375 0.546875,1.59375 1.3125,1.59375 0.203125,0 0.703125,-0.046875 1.296875,-0.75 0.078125,0.421875 0.4375,0.75 0.90625,0.75 0.359375,0 0.578125,-0.234375 0.75,-0.546875 0.15625,-0.359375 0.296875,-0.984375 0.296875,-0.984375 z M 3.5625,-3.140625 3.078125,-1.1875 C 3.015625,-1 3.015625,-0.984375 2.875,-0.8125 2.4375,-0.265625 2.03125,-0.109375 1.75,-0.109375 c -0.5,0 -0.640625,-0.546875 -0.640625,-0.9375 0,-0.5 0.3125,-1.71875 0.546875,-2.1875 0.3125,-0.578125 0.75,-0.953125 1.15625,-0.953125 0.640625,0 0.78125,0.8125 0.78125,0.875 0,0.0625 -0.015625,0.125 -0.03125,0.171875 z m 0,0"
               id="path4943" />
          </symbol>
          <symbol
             style="overflow:visible"
             overflow="visible"
             id="textext-083378dc-2">
            <path
               inkscape:connector-curvature="0"
               style="stroke:none"
               d=""
               id="path4946" />
          </symbol>
          <symbol
             style="overflow:visible"
             overflow="visible"
             id="textext-083378dc-3">
            <path
               inkscape:connector-curvature="0"
               style="stroke:none"
               d="m 3.578125,-1.203125 c 0,-0.546875 -0.4375,-1.09375 -1.203125,-1.25 0.71875,-0.265625 0.984375,-0.78125 0.984375,-1.21875 0,-0.546875 -0.625,-0.953125 -1.40625,-0.953125 -0.765625,0 -1.359375,0.375 -1.359375,0.9375 0,0.234375 0.15625,0.359375 0.359375,0.359375 0.21875,0 0.359375,-0.15625 0.359375,-0.34375 0,-0.203125 -0.140625,-0.359375 -0.359375,-0.375 0.25,-0.296875 0.71875,-0.375 0.984375,-0.375 0.3125,0 0.75,0.15625 0.75,0.75 0,0.296875 -0.09375,0.625 -0.28125,0.828125 -0.21875,0.265625 -0.421875,0.28125 -0.765625,0.3125 -0.171875,0.015625 -0.1875,0.015625 -0.21875,0.015625 0,0 -0.078125,0.015625 -0.078125,0.09375 0,0.09375 0.0625,0.09375 0.1875,0.09375 l 0.375,0 c 0.546875,0 0.9375,0.375 0.9375,1.125 0,0.859375 -0.515625,1.125 -0.90625,1.125 -0.28125,0 -0.90625,-0.078125 -1.1875,-0.5 0.328125,0 0.40625,-0.234375 0.40625,-0.390625 0,-0.21875 -0.171875,-0.375 -0.390625,-0.375 -0.1875,0 -0.390625,0.125 -0.390625,0.40625 0,0.65625 0.71875,1.078125 1.5625,1.078125 0.96875,0 1.640625,-0.65625 1.640625,-1.34375 z m 0,0"
               id="path4949" />
          </symbol>
        </g>
      </defs>
      <g
         id="textext-083378dc-4">
        <g
           style="fill:#000000;fill-opacity:1"
           id="g4952">
          <use
             height="97.760002"
             width="180.92"
             xlink:href="#textext-083378dc-1"
             x="223.43201"
             y="134.765"
             id="use4954" />
        </g>
        <g
           style="fill:#000000;fill-opacity:1"
           id="g4956">
          <use
             height="97.760002"
             width="180.92"
             xlink:href="#textext-083378dc-3"
             x="228.698"
             y="136.259"
             id="use4958" />
        </g>
      </g>
    </g>
    <path
       style="fill:none;stroke:#000099;stroke-width:1px;stroke-linecap:butt;stroke-linejoin:miter;stroke-opacity:1"
       d="m 349.68051,186.98057 29.85891,-0.31774"
       id="path3440-7-7-7"
       inkscape:connector-curvature="0"
       sodipodi:nodetypes="cc" />
    <g
       ns0:text="$t$"
       ns0:preamble="/home/rtrepos/writings/works/2012_10_24_EC_ConceptionIdetotypes/figures/preamble.tex"
       transform="translate(157.63611,79.306481)"
       id="g5661">
      <defs
         id="defs5663">
        <g
           id="g5665">
          <symbol
             style="overflow:visible"
             overflow="visible"
             id="textext-de61a09c-0">
            <path
               inkscape:connector-curvature="0"
               style="stroke:none"
               d=""
               id="path5668" />
          </symbol>
          <symbol
             style="overflow:visible"
             overflow="visible"
             id="textext-de61a09c-1">
            <path
               inkscape:connector-curvature="0"
               style="stroke:none"
               d="m 3.125,-1.421875 c 0,-0.109375 -0.078125,-0.109375 -0.109375,-0.109375 -0.09375,0 -0.109375,0.03125 -0.15625,0.140625 -0.421875,1.046875 -0.953125,1.28125 -1.296875,1.28125 -0.203125,0 -0.3125,-0.125 -0.3125,-0.453125 0,-0.25 0.03125,-0.3125 0.0625,-0.484375 l 0.734375,-2.9375 0.9375,0 c 0.203125,0 0.3125,0 0.3125,-0.203125 0,-0.109375 -0.109375,-0.109375 -0.28125,-0.109375 l -0.875,0 C 2.5,-5.71875 2.546875,-5.90625 2.546875,-5.96875 c 0,-0.171875 -0.125,-0.265625 -0.296875,-0.265625 -0.03125,0 -0.3125,0 -0.390625,0.359375 l -0.390625,1.578125 -0.9375,0 c -0.203125,0 -0.296875,0 -0.296875,0.1875 0,0.125 0.078125,0.125 0.28125,0.125 l 0.875,0 C 0.671875,-1.15625 0.625,-0.984375 0.625,-0.8125 0.625,-0.265625 1,0.109375 1.546875,0.109375 2.5625,0.109375 3.125,-1.34375 3.125,-1.421875 z m 0,0"
               id="path5671" />
          </symbol>
        </g>
      </defs>
      <g
         id="textext-de61a09c-2">
        <g
           style="fill:#000000;fill-opacity:1"
           id="g5674">
          <use
             height="74.222275"
             width="186.44366"
             xlink:href="#textext-de61a09c-1"
             x="223.43201"
             y="134.765"
             id="use5676" />
        </g>
      </g>
    </g>
    <path
       style="fill:none;stroke:#000000;stroke-width:0.60000002;stroke-linecap:butt;stroke-linejoin:miter;stroke-miterlimit:4;stroke-opacity:1;stroke-dasharray:0.6, 0.6;stroke-dashoffset:0"
       d="m 379.57602,192.10336 0,10"
       id="path2993-2-7-3-6-0-3-9-6"
       inkscape:connector-curvature="0"
       sodipodi:nodetypes="cc" />
    <path
       style="fill:none;stroke:#000003;stroke-width:1;stroke-linecap:butt;stroke-linejoin:miter;stroke-opacity:1;stroke-miterlimit:4;stroke-dasharray:1, 1;stroke-dashoffset:0;marker-mid:none;marker-start:none"
       d="m 259.53942,196.66283 20.17654,-0.12941"
       id="path3440-7-7-7-3"
       inkscape:connector-curvature="0"
       sodipodi:nodetypes="cc" />
    <path
       style="fill:none;stroke:#000000;stroke-width:0.60000002;stroke-linecap:butt;stroke-linejoin:miter;stroke-miterlimit:4;stroke-opacity:1;stroke-dasharray:0.6, 0.6;stroke-dashoffset:0"
       d="m 359.53942,196.66283 0,5"
       id="path2993-2-7-3-6-0-3-9-6-3"
       inkscape:connector-curvature="0"
       sodipodi:nodetypes="cc" />
    <path
       style="fill:none;stroke:#000000;stroke-width:0.60000002;stroke-linecap:butt;stroke-linejoin:miter;stroke-miterlimit:4;stroke-opacity:1;stroke-dasharray:0.6, 0.6;stroke-dashoffset:0"
       d="m 339.70745,196.59683 -0.16803,5.066"
       id="path2993-2-7-3-6-0-3-9-6-3-5"
       inkscape:connector-curvature="0"
       sodipodi:nodetypes="cc" />
    <path
       style="fill:none;stroke:#000000;stroke-width:0.60000002;stroke-linecap:butt;stroke-linejoin:miter;stroke-miterlimit:4;stroke-opacity:1;stroke-dasharray:0.6, 0.6;stroke-dashoffset:0"
       d="m 319.53942,196.66283 0,5"
       id="path2993-2-7-3-6-0-3-9-6-3-9"
       inkscape:connector-curvature="0"
       sodipodi:nodetypes="cc" />
    <path
       style="fill:none;stroke:#000000;stroke-width:0.60000002;stroke-linecap:butt;stroke-linejoin:miter;stroke-miterlimit:4;stroke-opacity:1;stroke-dasharray:0.6, 0.6;stroke-dashoffset:0"
       d="m 299.53193,196.54582 0.007,5.11701"
       id="path2993-2-7-3-6-0-3-9-6-3-7"
       inkscape:connector-curvature="0"
       sodipodi:nodetypes="cc" />
    <path
       style="fill:none;stroke:#000000;stroke-width:0.60000002;stroke-linecap:butt;stroke-linejoin:miter;stroke-miterlimit:4;stroke-opacity:1;stroke-dasharray:0.6, 0.6;stroke-dashoffset:0"
       d="m 279.68765,196.76094 0.007,5.11701"
       id="path2993-2-7-3-6-0-3-9-6-3-7-0"
       inkscape:connector-curvature="0"
       sodipodi:nodetypes="cc" />
    <path
       style="fill:none;stroke:#000000;stroke-width:0.60000002;stroke-linecap:butt;stroke-linejoin:miter;stroke-miterlimit:4;stroke-opacity:1;stroke-dasharray:0.6, 0.6;stroke-dashoffset:0"
       d="m 259.69996,196.92506 0.007,5.11701"
       id="path2993-2-7-3-6-0-3-9-6-3-7-8"
       inkscape:connector-curvature="0"
       sodipodi:nodetypes="cc" />
    <g
       id="g7884"
       transform="translate(40.766991,75.338729)"
       ns0:preamble="/home/rtrepos/writings/works/2012_10_24_EC_ConceptionIdetotypes/figures/preamble.tex"
       ns0:text="$\\Delta_t$">
      <defs
         id="defs7886">
        <g
           id="g7888">
          <symbol
             id="textext-4584189b-0"
             overflow="visible"
             style="overflow:visible">
            <path
               id="path7891"
               d=""
               style="stroke:none"
               inkscape:connector-curvature="0" />
          </symbol>
          <symbol
             id="textext-4584189b-1"
             overflow="visible"
             style="overflow:visible">
            <path
               id="path7894"
               d="m 7.828125,-0.078125 c 0,0 0,-0.03125 -0.046875,-0.125 l -3.375,-6.75 c -0.0625,-0.140625 -0.09375,-0.1875 -0.265625,-0.1875 -0.15625,0 -0.1875,0.046875 -0.25,0.1875 l -3.375,6.75 c -0.046875,0.09375 -0.046875,0.125 -0.046875,0.125 C 0.46875,0 0.53125,0 0.6875,0 l 6.921875,0 c 0.15625,0 0.21875,0 0.21875,-0.078125 z M 6.515625,-0.75 l -5.375,0 2.6875,-5.390625 z m 0,0"
               style="stroke:none"
               inkscape:connector-curvature="0" />
          </symbol>
          <symbol
             id="textext-4584189b-2"
             overflow="visible"
             style="overflow:visible">
            <path
               id="path7897"
               d=""
               style="stroke:none"
               inkscape:connector-curvature="0" />
          </symbol>
          <symbol
             id="textext-4584189b-3"
             overflow="visible"
             style="overflow:visible">
            <path
               id="path7900"
               d="m 2.609375,-1 c 0,-0.09375 -0.09375,-0.09375 -0.109375,-0.09375 -0.09375,0 -0.09375,0.015625 -0.15625,0.140625 -0.1875,0.4375 -0.546875,0.828125 -0.921875,0.828125 -0.15625,0 -0.25,-0.09375 -0.25,-0.34375 0,-0.0625 0.03125,-0.21875 0.046875,-0.28125 l 0.5,-2 0.703125,0 c 0.140625,0 0.21875,0 0.21875,-0.15625 C 2.640625,-3 2.5625,-3 2.4375,-3 l -0.65625,0 0.25,-1.03125 C 2.046875,-4.0625 2.0625,-4.109375 2.0625,-4.125 c 0,-0.140625 -0.109375,-0.234375 -0.25,-0.234375 -0.171875,0 -0.265625,0.125 -0.328125,0.296875 C 1.4375,-3.875 1.53125,-4.21875 1.21875,-3 l -0.703125,0 c -0.125,0 -0.21875,0 -0.21875,0.15625 C 0.296875,-2.75 0.375,-2.75 0.5,-2.75 l 0.65625,0 L 0.75,-1.109375 C 0.703125,-0.9375 0.640625,-0.6875 0.640625,-0.59375 c 0,0.40625 0.359375,0.65625 0.75,0.65625 0.78125,0 1.21875,-0.96875 1.21875,-1.0625 z m 0,0"
               style="stroke:none"
               inkscape:connector-curvature="0" />
          </symbol>
        </g>
      </defs>
      <g
         id="textext-4584189b-4">
        <g
           id="g7903"
           style="fill:#000000;fill-opacity:1">
          <use
             id="use7905"
             y="134.765"
             x="223.43201"
             xlink:href="#textext-4584189b-1"
             width="156.98309"
             height="74.222275" />
        </g>
        <g
           id="g7907"
           style="fill:#000000;fill-opacity:1">
          <use
             id="use7909"
             y="136.259"
             x="231.73399"
             xlink:href="#textext-4584189b-3"
             width="156.98309"
             height="74.222275" />
        </g>
      </g>
    </g>
  </g>
</svg>
